<svg width="72" height="72" viewBox="0 0 72 72" fill="none" xmlns="http://www.w3.org/2000/svg">
<g clip-path="url(#clip0_930_205)">
<path fill-rule="evenodd" clip-rule="evenodd" d="M56.9081 6.50201C56.8048 6.72302 56.6956 6.94005 56.5807 7.15296C64.9064 13.0947 70.2897 22.4188 71.2726 32.5999C71.5144 32.6069 71.757 32.6208 72 32.6418C71.0222 22.1736 65.485 12.5829 56.9081 6.50201ZM32.5997 0.727424C32.6067 0.485617 32.6206 0.24306 32.6416 0C22.1736 0.977833 12.5831 6.51492 6.50226 15.0916C6.72327 15.1949 6.94029 15.3041 7.1532 15.419C13.0949 7.09356 22.4188 1.71037 32.5997 0.727424ZM0.727417 39.3999C0.485611 39.3929 0.243058 39.3789 0 39.3579C0.977727 49.8262 6.51494 59.417 15.0919 65.4979C15.1952 65.2769 15.3044 65.0598 15.4193 64.8469C7.09357 58.9052 1.71026 49.581 0.727417 39.3999ZM65.4979 56.9082C59.417 65.485 49.8264 71.0221 39.3583 72C39.3793 71.7569 39.3932 71.5143 39.4002 71.2725C49.5812 70.2896 58.9052 64.9063 64.8469 56.5808C65.0598 56.6957 65.2769 56.8049 65.4979 56.9082ZM36.0474 42.9441C39.857 42.9441 42.9454 39.8558 42.9454 36.0461C42.9454 32.2364 39.857 29.1481 36.0474 29.1481C32.2377 29.1481 29.1493 32.2364 29.1493 36.0461C29.1493 39.8558 32.2377 42.9441 36.0474 42.9441ZM36.0474 43.6641C40.2547 43.6641 43.6654 40.2534 43.6654 36.0461C43.6654 31.8388 40.2547 28.4281 36.0474 28.4281C31.84 28.4281 28.4293 31.8388 28.4293 36.0461C28.4293 40.2534 31.84 43.6641 36.0474 43.6641ZM28.0991 20.8101H21.5313H20.8113V21.5301L20.8113 28.0654C21.054 28.0654 21.2941 28.0762 21.5313 28.0974V21.5301H28.1971C28.1539 21.2936 28.121 21.0534 28.0991 20.8101ZM43.8976 21.5301H50.5634V28.0975C50.8005 28.0763 51.0407 28.0654 51.2833 28.0654H51.2834V21.5301V20.8101H50.5634H43.9956C43.9737 21.0534 43.9408 21.2936 43.8976 21.5301ZM50.5634 50.5622V43.995C50.8005 44.0162 51.0407 44.027 51.2833 44.027H51.2834V50.5622V51.2822H50.5634H44.028C44.028 51.0395 44.0172 50.7994 43.996 50.5622H50.5634ZM21.5313 51.2822H28.0665C28.0665 51.0395 28.0773 50.7994 28.0985 50.5622H21.5313V43.9949C21.2941 44.0161 21.054 44.027 20.8113 44.027L20.8113 50.5622V51.2822H21.5313Z" fill="#272727"/>
</g>
<defs>
<clipPath id="clip0_930_205">
<rect width="72" height="72" fill="white"/>
</clipPath>
</defs>
</svg>
