<svg width="64" height="24" viewBox="0 0 64 24" fill="none" xmlns="http://www.w3.org/2000/svg">
<path d="M40.1831 19.9595V20.1144H33.6553V19.9595C34.2364 19.9595 34.6432 19.3784 34.4495 18.836C33.7909 17.0152 32.28 13.6061 30.3237 13.6061V19.1459C30.3237 19.5914 30.6917 19.9595 31.1372 19.9595V20.1144H26.2366V19.9595C26.6821 19.9595 27.0501 19.5914 27.0501 19.1459V4.79266C27.0501 4.34715 26.6821 3.97912 26.2366 3.97912V3.82416H33.5778C36.2897 3.82416 38.4785 6.01298 38.4785 8.7248C38.4785 11.4366 36.2897 13.6254 33.5778 13.6254H32.7062C33.849 13.6254 34.9338 14.1872 35.5923 15.1169L38.401 19.0684C38.8078 19.6302 39.4664 19.9595 40.1831 19.9595ZM35.2049 8.70542C35.2049 6.09046 32.9193 3.97912 30.3237 3.88227L30.3043 13.4317C32.9193 13.4317 35.2049 11.3204 35.2049 8.70542Z" fill="#171717"/>
<path d="M49.1321 16.2598C48.5123 18.4873 46.459 20.1338 44.0184 20.1338C40.9967 20.1338 38.5754 17.6157 38.711 14.5746C38.8466 11.8434 41.0741 9.6352 43.8053 9.53835C46.2266 9.4415 48.2992 10.9717 49.0353 13.1218C49.0546 13.1799 49.074 13.2187 49.0934 13.2768L46.0716 14.3809L43.0499 15.485C42.7012 15.6012 42.585 16.0273 42.7981 16.3179C44.3477 18.3711 47.7375 17.4995 49.074 16.2791H49.1321V16.2598ZM42.3526 15.5237L43.786 15.0007C45.1419 14.4971 46.0523 13.2187 46.0523 11.7659C46.0523 10.6231 45.1225 9.65456 43.9797 9.67393C42.8756 9.6933 42.1201 10.4875 41.9845 11.7078C41.849 12.9669 41.9458 14.3228 42.3526 15.5237Z" fill="#171717"/>
<path d="M60.9866 3.84367L60.5798 7.3303H60.4249C60.5992 5.52887 59.1852 3.97926 57.3838 3.97926H53.8003C53.3548 3.97926 52.9868 4.3473 52.9868 4.79281V11.8823H55.3112C56.4734 11.8823 57.4225 10.9912 57.5194 9.84841H57.6743L57.345 13.9355H57.1901C57.2675 12.9283 56.4734 12.0566 55.4661 12.0566H53.5485C53.2386 12.0566 52.9868 12.3084 52.9868 12.6183V19.1461C52.9868 19.5916 53.3548 19.9596 53.8003 19.9596V20.1146H48.8997V19.9596C49.3452 19.9596 49.7132 19.5916 49.7132 19.1461V4.79281C49.7132 4.3473 49.3452 3.97926 48.8997 3.97926V3.8243H60.2118C60.5411 3.80493 60.7348 3.80493 60.9479 3.80493L60.9866 3.84367Z" fill="#171717"/>
<path d="M63.4078 20.0369V20.1919H58.5072V20.0369C58.9527 20.0369 59.3207 19.6689 59.3207 19.2234V12.6182C59.3207 12.2114 58.8752 11.9402 58.5072 12.1533L58.4297 12.0177L59.3207 11.4947L62.5749 9.61582V19.2428C62.5943 19.6689 62.9623 20.0369 63.4078 20.0369ZM58.8946 6.72968C58.4491 5.64495 58.9527 4.40526 60.0374 3.95974C61.1221 3.51423 62.3618 4.01786 62.8073 5.10259C63.2528 6.18731 62.7492 7.427 61.6645 7.87251C60.5798 8.31802 59.3401 7.79503 58.8946 6.72968Z" fill="#171717"/>
<path d="M11.2537 0.0217769C10.045 0.103131 8.8731 0.354944 7.769 0.771402C3.53469 2.3675 0.569128 6.18341 0.0558201 10.6947C-0.0294084 11.4192 -0.0139125 12.7944 0.0810011 13.515C0.549758 17.0191 2.41704 20.0292 5.31675 21.9681C5.67897 22.2044 6.16322 22.5027 6.39372 22.6228L6.81212 22.8398L6.56031 22.5221C5.87654 21.6408 5.3981 20.5541 5.21602 19.4655C5.10948 18.8302 5.13079 17.4161 5.2567 16.8622C5.59374 15.3978 6.42472 13.9973 7.50751 13.0869C7.83486 12.8099 7.86004 12.7751 7.82905 12.6395C7.81355 12.5581 7.79806 12.2618 7.79806 11.9848C7.80387 9.65454 9.65178 7.81631 11.9878 7.81631C13.4135 7.81631 14.7461 8.52526 15.4919 9.68359C15.5984 9.85018 15.7127 9.99158 15.7437 9.99158C15.825 9.99158 16.3635 9.4066 16.6405 9.0192C17.1132 8.3548 17.4967 7.41729 17.6265 6.58825C17.6962 6.16017 17.6962 5.26914 17.6323 4.84688C17.2487 2.47016 15.457 0.593197 13.121 0.12444C12.5282 0.000470752 11.9994 -0.0247114 11.2537 0.0217769Z" fill="#E83E45"/>
<path d="M17.4115 1.48615C18.1011 2.36749 18.5795 3.45415 18.7616 4.54275C18.8681 5.17809 18.8468 6.59211 18.7209 7.1461C18.3839 8.61048 17.5529 10.0109 16.4701 10.9213C16.1428 11.1983 16.1176 11.2332 16.1486 11.3688C16.1641 11.4501 16.1796 11.7465 16.1796 12.0235C16.1738 13.9721 14.8546 15.638 12.9622 16.0873C12.1312 16.283 11.0639 16.1939 10.3143 15.8607C9.60922 15.5489 8.85378 14.9135 8.48575 14.3208C8.38502 14.1542 8.27461 14.0186 8.23975 14.0186C8.15452 14.0186 7.62572 14.592 7.33904 14.991C6.86641 15.6554 6.48288 16.5929 6.3531 17.4219C6.28337 17.85 6.28337 18.7411 6.34729 19.1633C6.76568 21.757 8.84022 23.7153 11.4474 23.9807C11.9956 24.0368 13.2702 23.9652 14.0043 23.8354C17.8357 23.1749 21.1228 20.7032 22.7945 17.2147C24.2337 14.2143 24.3751 10.7644 23.1877 7.67878C22.1611 5.02507 20.1621 2.76457 17.6498 1.4261L17.1616 1.1646L17.4115 1.48615Z" fill="#E83E45"/>
</svg>
