<svg width="80" height="48" viewBox="0 0 80 48" fill="none" xmlns="http://www.w3.org/2000/svg">
<path d="M22.332 29.58H25.698V19.966L22.794 22.188L21.474 20.428L26.49 16.6H28.426V29.58H31.726V32H22.332V29.58ZM38.4054 29.778C38.8894 29.778 39.3367 29.7193 39.7474 29.602C40.1581 29.4847 40.5101 29.316 40.8034 29.096C41.1114 28.876 41.3461 28.6047 41.5074 28.282C41.6834 27.9593 41.7714 27.5927 41.7714 27.182C41.7714 26.3753 41.4487 25.7447 40.8034 25.29C40.1727 24.8207 39.2194 24.586 37.9434 24.586C37.7821 24.586 37.5914 24.5933 37.3714 24.608C37.1661 24.608 36.9681 24.6153 36.7774 24.63C36.5574 24.6447 36.3301 24.652 36.0954 24.652V16.6H44.0594V19.24H38.5594V22.254C38.6767 22.254 38.7941 22.2467 38.9114 22.232C39.0141 22.232 39.1094 22.232 39.1974 22.232C39.3001 22.2173 39.3881 22.21 39.4614 22.21C40.1947 22.21 40.8767 22.32 41.5074 22.54C42.1381 22.7453 42.6881 23.0607 43.1574 23.486C43.6267 23.9113 43.9861 24.432 44.2354 25.048C44.4994 25.6493 44.6314 26.3167 44.6314 27.05C44.6314 27.9153 44.4701 28.678 44.1474 29.338C43.8247 29.9833 43.3847 30.526 42.8274 30.966C42.2701 31.406 41.6247 31.7433 40.8914 31.978C40.1581 32.198 39.3734 32.308 38.5374 32.308C38.2147 32.308 37.8701 32.2713 37.5034 32.198C37.1367 32.1393 36.7774 32.066 36.4254 31.978C36.0734 31.8753 35.7434 31.7653 35.4354 31.648C35.1421 31.5307 34.8927 31.4207 34.6874 31.318L35.6114 29.03C35.8607 29.1767 36.2421 29.338 36.7554 29.514C37.2834 29.69 37.8334 29.778 38.4054 29.778ZM51.5968 29.778C52.0808 29.778 52.5281 29.7193 52.9388 29.602C53.3495 29.4847 53.7015 29.316 53.9948 29.096C54.3028 28.876 54.5375 28.6047 54.6988 28.282C54.8748 27.9593 54.9628 27.5927 54.9628 27.182C54.9628 26.3753 54.6401 25.7447 53.9948 25.29C53.3641 24.8207 52.4108 24.586 51.1348 24.586C50.9735 24.586 50.7828 24.5933 50.5628 24.608C50.3575 24.608 50.1595 24.6153 49.9688 24.63C49.7488 24.6447 49.5215 24.652 49.2868 24.652V16.6H57.2508V19.24H51.7508V22.254C51.8681 22.254 51.9855 22.2467 52.1028 22.232C52.2055 22.232 52.3008 22.232 52.3888 22.232C52.4915 22.2173 52.5795 22.21 52.6528 22.21C53.3861 22.21 54.0681 22.32 54.6988 22.54C55.3295 22.7453 55.8795 23.0607 56.3488 23.486C56.8181 23.9113 57.1775 24.432 57.4268 25.048C57.6908 25.6493 57.8228 26.3167 57.8228 27.05C57.8228 27.9153 57.6615 28.678 57.3388 29.338C57.0161 29.9833 56.5761 30.526 56.0188 30.966C55.4615 31.406 54.8161 31.7433 54.0828 31.978C53.3495 32.198 52.5648 32.308 51.7288 32.308C51.4061 32.308 51.0615 32.2713 50.6948 32.198C50.3281 32.1393 49.9688 32.066 49.6168 31.978C49.2648 31.8753 48.9348 31.7653 48.6268 31.648C48.3335 31.5307 48.0841 31.4207 47.8788 31.318L48.8028 29.03C49.0521 29.1767 49.4335 29.338 49.9468 29.514C50.4748 29.69 51.0248 29.778 51.5968 29.778Z" fill="#272727"/>
<path d="M1 37V47H11" stroke="#272727" stroke-width="0.72"/>
<path d="M69 1H79V11" stroke="#272727" stroke-width="0.72"/>
</svg>
